<svg width="217" height="33" viewBox="0 0 217 33" fill="none" xmlns="http://www.w3.org/2000/svg">
<path d="M24.9158 0C27.7278 0 30.0049 2.27945 30.0049 5.08906V14.632C30.0049 17.444 27.7254 19.7211 24.9158 19.7211H20.1175C19.3137 19.7211 18.5367 19.4352 17.9235 18.9148L15.065 16.4912C17.1344 15.2061 21.6029 12.3501 25.9541 4.77634C25.9663 4.7568 25.9566 4.74947 25.9468 4.76413C24.9402 6.14695 18.5172 11.0894 14.6473 10.9746C15.0846 10.5202 17.1026 8.55589 18.0896 6.682C18.0896 6.67955 18.0897 6.67711 18.0872 6.67955C17.8062 6.95318 15.4633 8.1601 13.7897 8.52901C8.66401 9.66263 5.50991 7.08755 3.3746 4.98156L2.63188 4.23641C2.47064 4.07272 2.31427 3.91391 2.1628 3.76732L0.572313 2.16951C-0.226595 1.36816 0.342658 0 1.47383 0H24.9158Z" fill="url(#paint0_linear_687_2444)"/>
<path d="M27.6075 30.8642L1.76395 6.04182C1.10186 5.4066 0 5.87568 0 6.7943V18.497C0 18.7853 0.119713 19.0589 0.32738 19.2568L14.2851 32.3765C14.4781 32.5573 14.7346 32.6599 14.9985 32.6599H26.8868C27.8225 32.6599 28.2843 31.514 27.6075 30.8642Z" fill="url(#paint1_linear_687_2444)"/>
<path d="M137.492 26.2979V5.93433H145.84C148.555 5.93433 150.678 6.57444 152.212 7.85464C153.764 9.13485 154.54 10.9086 154.54 13.1782C154.54 14.671 154.191 15.961 153.492 17.0482C152.794 18.1158 151.797 18.9392 150.497 19.5207C149.217 20.0826 147.675 20.3635 145.872 20.3635H139.588L141.277 18.646V26.2955H137.492V26.2979ZM150.817 26.2979L145.669 18.9099H149.713L154.89 26.2979H150.817ZM141.274 19.054L139.586 17.251H145.694C147.362 17.251 148.613 16.8918 149.446 16.1735C150.299 15.4553 150.727 14.456 150.727 13.1782C150.727 11.8785 150.299 10.8792 149.446 10.183C148.613 9.48421 147.362 9.13485 145.694 9.13485H139.586L141.274 7.27317V19.054ZM157.181 26.2979V4.71276H160.817V14.952L160.033 13.6718C160.575 12.6823 161.362 11.9274 162.388 11.4021C163.436 10.8597 164.638 10.5885 165.994 10.5885C167.235 10.5885 168.339 10.8304 169.309 11.3166C170.299 11.8003 171.073 12.5479 171.638 13.5569C172.199 14.5464 172.48 15.8266 172.48 17.3976V26.2979H168.845V17.8618C168.845 16.4838 168.515 15.4577 167.856 14.7785C167.215 14.0993 166.314 13.7597 165.151 13.7597C164.298 13.7597 163.541 13.9332 162.881 14.2826C162.222 14.6319 161.709 15.1548 161.34 15.8535C160.99 16.5327 160.817 17.3951 160.817 18.4432V26.2979H157.181ZM175.854 26.2979V10.7644H179.49V26.2979H175.854ZM177.687 8.20401C177.008 8.20401 176.446 7.99146 175.999 7.56391C175.571 7.13636 175.358 6.6233 175.358 6.02229C175.358 5.40173 175.571 4.88867 175.999 4.48066C176.446 4.05311 177.008 3.84056 177.687 3.84056C178.366 3.84056 178.918 4.04334 179.346 4.45135C179.793 4.83981 180.015 5.33332 180.015 5.93433C180.015 6.57443 179.803 7.11681 179.375 7.56391C178.947 7.99146 178.386 8.20401 177.687 8.20401ZM183.023 26.2979V10.7644H186.485V14.9544L185.874 13.6742C186.416 12.6847 187.203 11.9298 188.229 11.4045C189.277 10.8621 190.479 10.591 191.835 10.591C193.076 10.591 194.183 10.8328 195.15 11.319C196.14 11.8028 196.914 12.5504 197.479 13.5594C198.041 14.5489 198.322 15.8291 198.322 17.4V26.3004H194.686V17.8618C194.686 16.4838 194.356 15.4577 193.697 14.7785C193.057 14.0993 192.155 13.7597 190.992 13.7597C190.139 13.7597 189.382 13.9332 188.722 14.2826C188.063 14.6319 187.55 15.1548 187.181 15.8535C186.831 16.5327 186.658 17.3951 186.658 18.4432V26.2979H183.023ZM208.707 26.5007C207.117 26.5007 205.702 26.1611 204.461 25.4819C203.22 24.7832 202.24 23.8328 201.522 22.6308C200.804 21.4287 200.445 20.0606 200.445 18.5287C200.445 16.9773 200.804 15.6092 201.522 14.4267C202.24 13.2247 203.22 12.2841 204.461 11.6049C205.702 10.9257 207.119 10.5861 208.707 10.5861C210.317 10.5861 211.742 10.9257 212.983 11.6049C214.244 12.2841 215.223 13.2149 215.922 14.3974C216.64 15.5799 216.999 16.9578 216.999 18.5287C216.999 20.0606 216.64 21.4287 215.922 22.6308C215.223 23.8328 214.244 24.7832 212.983 25.4819C211.742 26.1611 210.317 26.5007 208.707 26.5007ZM208.707 23.3882C209.599 23.3882 210.396 23.1951 211.092 22.8067C211.791 22.4182 212.333 21.8563 212.721 21.1185C213.129 20.3806 213.332 19.5182 213.332 18.5287C213.332 17.5197 213.129 16.6573 212.721 15.939C212.333 15.2012 211.791 14.6393 211.092 14.2508C210.393 13.8623 209.609 13.6693 208.737 13.6693C207.845 13.6693 207.048 13.8623 206.352 14.2508C205.673 14.6393 205.131 15.2012 204.723 15.939C204.315 16.6573 204.112 17.5197 204.112 18.5287C204.112 19.5182 204.315 20.3806 204.723 21.1185C205.131 21.8563 205.673 22.4182 206.352 22.8067C207.048 23.1951 207.835 23.3882 208.707 23.3882Z" fill="url(#paint2_linear_687_2444)"/>
<path d="M37.8125 26.2982V5.93456H46.1607C48.8751 5.93456 50.9981 6.57467 52.5324 7.85488C54.0838 9.13508 54.8583 10.9088 54.8583 13.1785C54.8583 14.6712 54.5089 15.9612 53.8102 17.0484C53.1115 18.1161 52.1122 18.9394 50.8149 19.5209C49.5347 20.0828 47.9931 20.3638 46.19 20.3638H39.9063L41.5945 18.6462V26.2957H37.8125V26.2982ZM51.135 26.2982L45.9873 18.9101H50.0307L55.2077 26.2982H51.135ZM41.5945 19.0543L39.9063 17.2512H46.0141C47.6828 17.2512 48.9337 16.8921 49.7668 16.1738C50.6195 15.4555 51.047 14.4562 51.047 13.1785C51.047 11.8787 50.6195 10.8795 49.7668 10.1832C48.9337 9.48445 47.6828 9.13508 46.0141 9.13508H39.9063L41.5945 7.27341V19.0543ZM64.4819 26.5009C62.8914 26.5009 61.4768 26.1614 60.2357 25.4822C58.9946 24.7834 58.0149 23.833 57.2966 22.631C56.5783 21.429 56.2191 20.0608 56.2191 18.529C56.2191 16.9776 56.5783 15.6094 57.2966 14.4269C58.0149 13.2249 58.9921 12.2843 60.2357 11.6051C61.4768 10.9259 62.8914 10.5863 64.4819 10.5863C66.0919 10.5863 67.5162 10.9259 68.7574 11.6051C70.018 12.2843 70.9977 13.2151 71.6965 14.3976C72.4147 15.5801 72.7739 16.958 72.7739 18.529C72.7739 20.0608 72.4147 21.429 71.6965 22.631C70.9977 23.833 70.018 24.7834 68.7574 25.4822C67.5162 26.1614 66.0919 26.5009 64.4819 26.5009ZM64.4819 23.3884C65.3736 23.3884 66.1701 23.1954 66.8664 22.8069C67.5651 22.4185 68.1075 21.8565 68.4959 21.1187C68.9039 20.3809 69.1067 19.5184 69.1067 18.529C69.1067 17.52 68.9039 16.6575 68.4959 15.9392C68.1075 15.2014 67.5651 14.6395 66.8664 14.251C66.1676 13.8626 65.3834 13.6696 64.5112 13.6696C63.6194 13.6696 62.823 13.8626 62.1267 14.251C61.4475 14.6395 60.9051 15.2014 60.4971 15.9392C60.0891 16.6575 59.8863 17.52 59.8863 18.529C59.8863 19.5184 60.0891 20.3809 60.4971 21.1187C60.9051 21.8565 61.4475 22.4185 62.1267 22.8069C62.823 23.1954 63.6097 23.3884 64.4819 23.3884ZM82.136 26.5009C80.5064 26.5009 79.0528 26.1614 77.7726 25.4822C76.5119 24.7834 75.5224 23.833 74.8066 22.631C74.0883 21.429 73.7292 20.0608 73.7292 18.529C73.7292 16.9776 74.0883 15.6094 74.8066 14.4269C75.5249 13.2249 76.5143 12.2843 77.7726 11.6051C79.0528 10.9259 80.5064 10.5863 82.136 10.5863C83.6483 10.5863 84.9774 10.8966 86.1208 11.5171C87.2837 12.1182 88.1681 13.0099 88.7691 14.1924L85.9766 15.822C85.5124 15.0841 84.9383 14.5418 84.2615 14.1924C83.6019 13.843 82.8836 13.6696 82.1091 13.6696C81.2174 13.6696 80.4111 13.8626 79.6953 14.251C78.977 14.6395 78.4151 15.2014 78.0071 15.9392C77.5991 16.6575 77.3963 17.52 77.3963 18.529C77.3963 19.538 77.5991 20.4102 78.0071 21.148C78.4151 21.8663 78.977 22.4185 79.6953 22.8069C80.4136 23.1954 81.2174 23.3884 82.1091 23.3884C82.8836 23.3884 83.6019 23.2149 84.2615 22.8655C84.9407 22.5162 85.5124 21.9738 85.9766 21.236L88.7691 22.8655C88.1681 24.0285 87.2862 24.93 86.1208 25.5701C84.9774 26.1907 83.6483 26.5009 82.136 26.5009ZM93.4966 22.8362L93.5846 18.27L101.701 10.7647H106.064L99.1696 17.6885L97.2493 19.2888L93.4966 22.8362ZM90.5306 26.2982V4.71299H94.166V26.2982H90.5306ZM102.253 26.2982L96.5799 19.2863L98.8789 16.3766L106.675 26.2957H102.253V26.2982ZM114.403 26.5009C112.678 26.5009 111.163 26.1614 109.866 25.4822C108.585 24.7834 107.586 23.833 106.87 22.631C106.172 21.429 105.822 20.0608 105.822 18.529C105.822 16.9776 106.162 15.6094 106.841 14.4269C107.54 13.2249 108.49 12.2843 109.692 11.6051C110.914 10.9259 112.301 10.5863 113.853 10.5863C115.365 10.5863 116.714 10.9161 117.896 11.5758C119.079 12.2354 120.01 13.1663 120.689 14.3683C121.368 15.5703 121.708 16.9873 121.708 18.6145C121.708 18.7684 121.698 18.9443 121.678 19.1373C121.678 19.3303 121.669 19.516 121.649 19.6895H108.705V17.2756H119.731L118.307 18.033C118.326 17.1413 118.143 16.3546 117.755 15.6778C117.366 15.0011 116.834 14.466 116.154 14.0776C115.495 13.6891 114.73 13.4961 113.855 13.4961C112.964 13.4961 112.177 13.6891 111.5 14.0776C110.84 14.466 110.318 15.0084 109.929 15.7071C109.56 16.3863 109.377 17.1901 109.377 18.121V18.7024C109.377 19.6333 109.59 20.4566 110.017 21.1749C110.445 21.8932 111.046 22.4453 111.82 22.8338C112.597 23.2222 113.489 23.4153 114.495 23.4153C115.368 23.4153 116.154 23.2784 116.851 23.0073C117.549 22.7361 118.17 22.3085 118.712 21.727L120.662 23.9674C119.963 24.781 119.081 25.4113 118.014 25.8584C116.963 26.2884 115.761 26.5009 114.403 26.5009ZM129.804 26.5009C128.099 26.5009 126.78 26.0636 125.849 25.1914C124.918 24.2997 124.454 22.9902 124.454 21.2653V7.33204H128.089V21.1798C128.089 21.9176 128.272 22.4893 128.641 22.8973C129.03 23.3053 129.562 23.5081 130.242 23.5081C131.055 23.5081 131.734 23.2955 132.277 22.868L133.295 25.4577C132.868 25.8071 132.345 26.0685 131.724 26.2444C131.104 26.4154 130.464 26.5009 129.804 26.5009ZM121.891 13.672V10.7622H132.247V13.672H121.891Z" fill="white"/>
<defs>
<linearGradient id="paint0_linear_687_2444" x1="0.195703" y1="9.86106" x2="30.006" y2="9.86106" gradientUnits="userSpaceOnUse">
<stop stop-color="#FF0677"/>
<stop offset="0.6055" stop-color="#7725A3"/>
<stop offset="1" stop-color="#2239BF"/>
</linearGradient>
<linearGradient id="paint1_linear_687_2444" x1="18.4468" y1="36.1532" x2="5.41626" y2="3.90153" gradientUnits="userSpaceOnUse">
<stop stop-color="#2239BF"/>
<stop offset="0.2191" stop-color="#5D2BAC"/>
<stop offset="0.4958" stop-color="#A21B95"/>
<stop offset="0.7277" stop-color="#D41085"/>
<stop offset="0.9025" stop-color="#F3097B"/>
<stop offset="1" stop-color="#FF0677"/>
</linearGradient>
<linearGradient id="paint2_linear_687_2444" x1="141.96" y1="5.47905" x2="226.099" y2="39.4732" gradientUnits="userSpaceOnUse">
<stop stop-color="#B7178E"/>
<stop offset="0.2874" stop-color="#A81A93"/>
<stop offset="1" stop-color="#87229E"/>
</linearGradient>
</defs>
</svg>
